<svg xmlns="http://www.w3.org/2000/svg" viewBox="0 0 12 12"><title>ic_2</title><g id="Page_3" data-name="Page 3"><g id="Page_3-2" data-name="Page 3"><polygon points="1.76 1.76 4.24 1.76 6 0 7.76 1.76 10.24 1.76 10.24 4.24 12 6 10.24 7.76 10.24 10.24 7.76 10.24 6 12 4.24 10.24 1.76 10.24 1.76 7.76 0 6 1.76 4.24 1.76 1.76" fill="#24ab9a" fill-rule="evenodd"/><path d="M8.58,7.3A2.78,2.78,0,1,1,5,3.36a2.75,2.75,0,0,0-.41,1.45A2.79,2.79,0,0,0,7.35,7.59,2.69,2.69,0,0,0,8.58,7.3" fill="#fff" fill-rule="evenodd"/><polygon points="6.97 3.88 7.26 4.79 8.22 4.79 7.45 5.35 7.74 6.26 6.97 5.69 6.2 6.26 6.5 5.35 5.72 4.79 6.68 4.79 6.97 3.88" fill="#fff" fill-rule="evenodd"/></g></g></svg>