<svg xmlns="http://www.w3.org/2000/svg" viewBox="0 0 12 12"><title>ic_2</title><g id="Page_5" data-name="Page 5"><g id="Page_5-2" data-name="Page 5"><path d="M9.94,4.17a.21.21,0,0,0-.17.08.41.41,0,0,0-.09.21h.51v0a.29.29,0,0,0-.07-.19.25.25,0,0,0-.18-.07M10,5.29a.67.67,0,0,1-.49-.18.66.66,0,0,1-.19-.49v0a.86.86,0,0,1,.08-.36A.56.56,0,0,1,9.62,4,.58.58,0,0,1,10,3.88a.54.54,0,0,1,.43.18.68.68,0,0,1,.16.5V4.7H9.68a.36.36,0,0,0,.11.22A.31.31,0,0,0,10,5a.4.4,0,0,0,.33-.15l.18.2a.71.71,0,0,1-.23.18A.73.73,0,0,1,10,5.29ZM8.45,4.17a.23.23,0,0,0-.18.08.4.4,0,0,0-.08.21h.5v0a.25.25,0,0,0-.07-.19A.24.24,0,0,0,8.45,4.17Zm0,1.12A.69.69,0,0,1,8,5.11a.7.7,0,0,1-.19-.49v0a.86.86,0,0,1,.08-.36A.62.62,0,0,1,8.12,4a.58.58,0,0,1,.33-.09.57.57,0,0,1,.44.18.73.73,0,0,1,.16.5V4.7H8.18a.36.36,0,0,0,.11.22A.33.33,0,0,0,8.51,5a.4.4,0,0,0,.33-.15l.18.2a.79.79,0,0,1-.22.18A.81.81,0,0,1,8.49,5.29ZM7.17,4.57a.56.56,0,0,0-.07-.29.23.23,0,0,0-.2-.11.23.23,0,0,0-.23.14v.55A.24.24,0,0,0,6.91,5C7.08,5,7.17,4.86,7.17,4.57Zm.36,0a.82.82,0,0,1-.14.5A.47.47,0,0,1,7,5.29a.42.42,0,0,1-.33-.14v.64H6.31V3.91h.33l0,.13A.4.4,0,0,1,7,3.88a.44.44,0,0,1,.39.19.84.84,0,0,1,.14.51Zm-2.48,0a.51.51,0,0,0,.07.3.27.27,0,0,0,.42,0,.58.58,0,0,0,.07-.33.5.5,0,0,0-.07-.29.26.26,0,0,0-.42,0A.54.54,0,0,0,5.05,4.6Zm-.36,0a.86.86,0,0,1,.07-.36A.66.66,0,0,1,5,4a.68.68,0,0,1,.79.08A.67.67,0,0,1,6,4.51V4.6a.72.72,0,0,1-.17.5.6.6,0,0,1-.47.19.6.6,0,0,1-.47-.19.69.69,0,0,1-.17-.51ZM3.55,4.05a.48.48,0,0,1,.36-.17q.45,0,.45.51v.87H4V4.4a.29.29,0,0,0,0-.17.21.21,0,0,0-.17-.06.26.26,0,0,0-.23.13v1H3.19V3.34h.36Zm6.82,2.39H10.2l0,0,0,0h1v0H11l.32,1.2.3-.94a.44.44,0,0,0,0-.1.14.14,0,0,0-.05-.12l-.15,0h-.06s0,0,0,0v0H12v0H12l-.09,0a.45.45,0,0,0-.14.19L11.2,8.31a.4.4,0,0,1-.25.26.85.85,0,0,1-.38.09.6.6,0,0,1-.27-.06.17.17,0,0,1-.12-.15.15.15,0,0,1,.09-.13.51.51,0,0,1,.22,0,.46.46,0,0,1,.21,0c.05,0,.08.06.08.1s-.06.11-.18.14,0,0,0,0l0,0h.06a.59.59,0,0,0,.25-.07.45.45,0,0,0,.24-.28l.08-.19h-.39Zm-1.51,0H8.64l0,0,0,0a1.68,1.68,0,0,0,.44-.2A1.31,1.31,0,0,0,9.34,6c.05-.07.08-.11.08-.14V5.75H9.5V6.4h.57l0,0H9.5V7.9a.13.13,0,0,0,0,.09l.09,0A.37.37,0,0,0,9.84,8,.3.3,0,0,0,10,7.67V7.44s0,0,0,0h.08s0,0,0,0v.17A.41.41,0,0,1,9.91,8a1,1,0,0,1-.48.11A.84.84,0,0,1,9,8a.25.25,0,0,1-.17-.24Zm-2.27,0H6.46l0,0,0,0h.78V8s0,0,0,0h.07a.33.33,0,0,0,.16,0,.22.22,0,0,0,.13-.19V6.44H7.44v0h.8V8H7.61V8a.68.68,0,0,1-.24.12,1.23,1.23,0,0,1-.29,0A.84.84,0,0,1,6.72,8c-.09,0-.13-.08-.13-.15Zm-1.18.63a1.17,1.17,0,0,0-.31.08A.14.14,0,0,0,5,7.28v.66a.05.05,0,0,0,0,0h.07a.2.2,0,0,0,.13,0,.3.3,0,0,0,.15-.24Zm-.79-.51h.19a.61.61,0,0,1,.24,0c.07,0,.1.07.1.12s0,.09-.1.12a.68.68,0,0,1-.27,0,.62.62,0,0,1-.27,0,.13.13,0,0,1-.1-.13c0-.09.08-.17.24-.23a1.92,1.92,0,0,1,.67-.09,1.88,1.88,0,0,1,.56.06c.11,0,.17.1.17.16V8a0,0,0,0,0,0,0l.06,0a.29.29,0,0,0,.18-.08s0,0,0,0l0,0s0,.08-.16.12a1.1,1.1,0,0,1-.39.06.78.78,0,0,1-.29,0,.28.28,0,0,1-.16-.14,1,1,0,0,1-.3.14.85.85,0,0,1-.29,0,.85.85,0,0,1-.32,0c-.07,0-.11-.07-.11-.12V7.34a.15.15,0,0,1,.1-.14,2.54,2.54,0,0,1,.56-.11A2.3,2.3,0,0,0,5.41,7V6.57s0-.08-.09-.11a.67.67,0,0,0-.22,0A.74.74,0,0,0,4.62,6.56ZM3.5,7.21V6.54a.1.1,0,0,0-.06-.1.17.17,0,0,0-.12,0,.32.32,0,0,0-.14,0,.1.1,0,0,0-.06.1v.67Zm-.38,0v.59A.19.19,0,0,0,3.2,8a.34.34,0,0,0,.17,0,.61.61,0,0,0,.36-.1A.57.57,0,0,0,4,7.49a.2.2,0,0,1,0-.11h.08a.08.08,0,0,1,0,.06.6.6,0,0,1-.22.47.91.91,0,0,1-.61.19A1.05,1.05,0,0,1,2.72,8c-.16-.09-.24-.31-.24-.63V7.09a.63.63,0,0,1,.32-.57,1,1,0,0,1,.55-.14.84.84,0,0,1,.58.18A.53.53,0,0,1,4.14,7v.25ZM1,6.88V8h.11a.57.57,0,0,0,.25,0,.11.11,0,0,0,.09-.1V7a.08.08,0,0,0-.05-.08.37.37,0,0,0-.17,0ZM1,5.77V6.84H1.2a.44.44,0,0,0,.19,0,.09.09,0,0,0,.07-.09V5.9a.09.09,0,0,0-.07-.1.65.65,0,0,0-.25,0ZM.27,8V5.76H0s0,0,0,0H1.1a1.8,1.8,0,0,1,.79.14.46.46,0,0,1,.31.42.42.42,0,0,1-.1.28.84.84,0,0,1-.33.19,1.84,1.84,0,0,1-.42.1,1.82,1.82,0,0,1,.43.1.84.84,0,0,1,.34.19.39.39,0,0,1,.11.28.5.5,0,0,1-.17.38A.8.8,0,0,1,1.69,8a2.35,2.35,0,0,1-.63.08H0l0,0L0,8ZM2.48,4.79a.2.2,0,0,0-.08-.17.87.87,0,0,0-.27-.12,2,2,0,0,1-.31-.12.54.54,0,0,1-.31-.46.41.41,0,0,1,.09-.26.45.45,0,0,1,.24-.18.78.78,0,0,1,.35-.07.74.74,0,0,1,.34.07.54.54,0,0,1,.24.2.53.53,0,0,1,.09.3H2.48a.26.26,0,0,0-.08-.2.34.34,0,0,0-.22-.07A.33.33,0,0,0,2,3.77a.17.17,0,0,0-.08.15A.18.18,0,0,0,2,4.07a1.29,1.29,0,0,0,.26.12,1,1,0,0,1,.47.24.49.49,0,0,1,0,.73.79.79,0,0,1-.49.13,1,1,0,0,1-.38-.08A.61.61,0,0,1,1.55,5a.54.54,0,0,1-.09-.31h.37q0,.3.36.3a.41.41,0,0,0,.21,0A.19.19,0,0,0,2.48,4.79Z" fill="#ce021b"/></g></g></svg>