<svg xmlns="http://www.w3.org/2000/svg" viewBox="0 0 12 12"><title>ic_2</title><g id="Page_8" data-name="Page 8"><g id="Page_8-2" data-name="Page 8"><polygon points="0.9 3.78 12 3.78 11.1 8.22 0 8.22 0.9 3.78" fill="#ee4e2e" fill-rule="evenodd"/><path d="M8.87,5.09,8.6,6.92H9a1.06,1.06,0,0,0,.35-.09,1.17,1.17,0,0,0,.3-.19,1.24,1.24,0,0,0,.22-.28A1,1,0,0,0,10,6a.72.72,0,0,0,0-.36.59.59,0,0,0-.16-.29.68.68,0,0,0-.27-.2,1,1,0,0,0-.36-.06Zm2,.91a1.89,1.89,0,0,1-.13.48,2,2,0,0,1-.25.43,2.31,2.31,0,0,1-.34.36,2.8,2.8,0,0,1-.4.27,2.54,2.54,0,0,1-.46.17,2.14,2.14,0,0,1-.5.06H7.66a.11.11,0,0,1-.08,0s0,0,0-.08l.5-3.33a.11.11,0,0,1,0-.08.14.14,0,0,1,.09,0H9.36a1.84,1.84,0,0,1,.47.06,1.38,1.38,0,0,1,.41.18,1.4,1.4,0,0,1,.33.27,1.69,1.69,0,0,1,.23.36,1.43,1.43,0,0,1,.12.43A1.49,1.49,0,0,1,10.91,6Zm-7,0a1.9,1.9,0,0,1,.14-.48,2.23,2.23,0,0,1,.59-.81,1.86,1.86,0,0,1,.41-.28,2.62,2.62,0,0,1,.46-.19A2.14,2.14,0,0,1,6,4.18a1.91,1.91,0,0,1,.48.06,1.84,1.84,0,0,1,.4.19,1.12,1.12,0,0,1,.33.28,1.43,1.43,0,0,1,.23.37,1.59,1.59,0,0,1,.12.44,1.93,1.93,0,0,1,0,.48,2.11,2.11,0,0,1-.14.49,2.3,2.3,0,0,1-.25.43,2,2,0,0,1-.34.37,2.34,2.34,0,0,1-.41.29A1.91,1.91,0,0,1,6,7.76a2,2,0,0,1-.49.06A1.86,1.86,0,0,1,5,7.76a1.5,1.5,0,0,1-.41-.18,1.47,1.47,0,0,1-.32-.29A1.28,1.28,0,0,1,4,6.92a1.52,1.52,0,0,1-.12-.43A2,2,0,0,1,3.91,6Zm.93,0a.91.91,0,0,0,0,.37,1,1,0,0,0,.14.3.86.86,0,0,0,.26.2.78.78,0,0,0,.35.07A.9.9,0,0,0,6,6.87a1.16,1.16,0,0,0,.32-.2,1.33,1.33,0,0,0,.23-.3A1.15,1.15,0,0,0,6.64,6a.92.92,0,0,0,0-.37.83.83,0,0,0-.14-.3.73.73,0,0,0-.26-.2.78.78,0,0,0-.35-.08.91.91,0,0,0-.37.08,1.07,1.07,0,0,0-.32.2,1.33,1.33,0,0,0-.23.3A1.23,1.23,0,0,0,4.84,6ZM4.15,4.49a.06.06,0,0,1,0,.06.08.08,0,0,1,0,.09l-.48.57-.07,0-.07,0a.79.79,0,0,0-.23-.14.91.91,0,0,0-.67,0,1,1,0,0,0-.31.2,1.33,1.33,0,0,0-.23.3A1.15,1.15,0,0,0,2,6a.86.86,0,0,0,0,.36.83.83,0,0,0,.14.3.65.65,0,0,0,.26.2.78.78,0,0,0,.35.08,1,1,0,0,0,.3-.05.92.92,0,0,0,.28-.14l.08,0s0,0,.05,0l.32.59s0,.07,0,.09l-.06.06a2.17,2.17,0,0,1-.52.23,1.77,1.77,0,0,1-.56.08,1.78,1.78,0,0,1-.47-.06,1.38,1.38,0,0,1-.41-.18,1.54,1.54,0,0,1-.68-1.09,1.62,1.62,0,0,1,0-.49,1.89,1.89,0,0,1,.13-.48,2.38,2.38,0,0,1,.25-.44,3,3,0,0,1,.34-.37,2.13,2.13,0,0,1,.41-.28,2.72,2.72,0,0,1,.47-.19,2,2,0,0,1,.49-.06,1.51,1.51,0,0,1,.53.08A1.42,1.42,0,0,1,4.15,4.49Z" fill="#fff"/></g></g></svg>