<svg width="13" height="12" viewBox="0 0 13 12" fill="none" xmlns="http://www.w3.org/2000/svg">
<path d="M7.45001 5.13998C7.26375 4.94949 7.0413 4.79813 6.79574 4.69479C6.55017 4.59146 6.28643 4.53823 6.02001 4.53823C5.75359 4.53823 5.48985 4.59146 5.24429 4.69479C4.99872 4.79813 4.77627 4.94949 4.59001 5.13998C4.39952 5.32624 4.24816 5.54869 4.14483 5.79425C4.04149 6.03982 3.98826 6.30356 3.98826 6.56998C3.98826 6.8364 4.04149 7.10014 4.14483 7.34571C4.24816 7.59127 4.39952 7.81372 4.59001 7.99998C4.77627 8.19047 4.99872 8.34183 5.24429 8.44516C5.48985 8.5485 5.75359 8.60173 6.02001 8.60173C6.28643 8.60173 6.55017 8.5485 6.79574 8.44516C7.0413 8.34183 7.26375 8.19047 7.45001 7.99998C7.6405 7.81372 7.79186 7.59127 7.8952 7.34571C7.99853 7.10014 8.05176 6.8364 8.05176 6.56998C8.05176 6.30356 7.99853 6.03982 7.8952 5.79425C7.79186 5.54869 7.6405 5.32624 7.45001 5.13998ZM6.00001 3.99998C6.34168 3.99903 6.68016 4.0657 6.99595 4.19613C7.31174 4.32657 7.5986 4.5182 7.84001 4.75998C8.3261 5.24899 8.59893 5.91048 8.59893 6.59998C8.59893 7.28948 8.3261 7.95097 7.84001 8.43998C7.351 8.92606 6.68951 9.1989 6.00001 9.1989C5.31051 9.1989 4.64902 8.92606 4.16001 8.43998C3.67393 7.95097 3.40109 7.28948 3.40109 6.59998C3.40109 5.91048 3.67393 5.24899 4.16001 4.75998C4.40142 4.5182 4.68828 4.32657 5.00407 4.19613C5.31987 4.0657 5.65834 3.99903 6.00001 3.99998Z" fill="#595959"/>
<path d="M3.34001 2.36998H1.05001C0.988259 2.36885 0.926962 2.38073 0.870106 2.40485C0.81325 2.42897 0.762109 2.46479 0.72001 2.50998C0.674821 2.55208 0.639001 2.60322 0.61488 2.66008C0.590759 2.71693 0.578878 2.77823 0.58001 2.83998V10.43C0.580615 10.5524 0.626989 10.6701 0.71001 10.76V10.76C0.752109 10.8052 0.80325 10.841 0.860106 10.8651C0.916962 10.8892 0.978259 10.9011 1.04001 10.9H11C11.1239 10.8974 11.2419 10.8471 11.3295 10.7595C11.4171 10.6719 11.4675 10.5538 11.47 10.43V2.83998C11.4714 2.71722 11.4248 2.59878 11.34 2.50998V2.50998C11.2957 2.46499 11.2427 2.42941 11.1843 2.40535C11.1258 2.3813 11.0632 2.36927 11 2.36998H8.86001C8.81922 2.37019 8.77879 2.36235 8.74104 2.3469C8.70329 2.33146 8.66896 2.30872 8.64001 2.27998L7.59001 1.09998H4.59001L3.59001 2.24998C3.5642 2.28705 3.5298 2.31733 3.48975 2.33822C3.4497 2.35912 3.40518 2.37002 3.36001 2.36998H3.34001ZM1.05001 1.78998H3.21001L4.21001 0.61998C4.26499 0.561486 4.33994 0.525793 4.42001 0.51998H7.72001C7.77328 0.51082 7.82807 0.517276 7.87776 0.53857C7.92744 0.559864 7.9699 0.595084 8.00001 0.63998L9.00001 1.78998H11C11.1381 1.78776 11.2751 1.81416 11.4025 1.86751C11.5298 1.92087 11.6447 2.00002 11.74 2.09998V2.09998C11.9292 2.30036 12.0362 2.56444 12.04 2.83998V10.43C12.0375 10.7059 11.9274 10.97 11.7332 11.1661C11.539 11.3622 11.2759 11.4748 11 11.48H1.05001C0.911945 11.4822 0.774916 11.4558 0.647557 11.4024C0.520198 11.3491 0.405269 11.2699 0.31001 11.17V11.17C0.12249 10.9685 0.0156973 10.7051 0.0100098 10.43V2.83998C0.0252457 2.5711 0.142257 2.3181 0.337278 2.13236C0.532298 1.94663 0.790704 1.84209 1.06001 1.83998L1.05001 1.78998Z" fill="#595959"/>
</svg>
