<svg width="12" height="10" viewBox="0 0 12 10" fill="none" xmlns="http://www.w3.org/2000/svg">
<path d="M7.93 1.79004C7.09305 1.07873 6.02835 0.691889 4.93 0.700042C3.83196 0.693665 2.76785 1.08029 1.93 1.79004C1.54913 2.10337 1.24031 2.49514 1.02459 2.93865C0.808874 3.38217 0.691339 3.86698 0.68 4.36004C0.675227 4.93518 0.823642 5.50123 1.11 6.00004C1.42014 6.50982 1.8404 6.94375 2.34 7.27004C2.40199 7.30686 2.45021 7.36297 2.4773 7.42978C2.50439 7.4966 2.50885 7.57045 2.49 7.64004L2.31 8.31004L3.15 7.82004C3.194 7.80016 3.24172 7.78988 3.29 7.78988C3.33828 7.78988 3.386 7.80016 3.43 7.82004C3.66623 7.90586 3.91095 7.9662 4.16 8.00004C4.4129 8.02105 4.6671 8.02105 4.92 8.00004C6.01723 8.01188 7.08209 7.62853 7.92 6.92004C8.29595 6.60592 8.60025 6.21491 8.81242 5.77333C9.02458 5.33175 9.13969 4.84984 9.15 4.36004C9.14432 3.86897 9.03232 3.38496 8.82172 2.94131C8.61111 2.49765 8.3069 2.10489 7.93 1.79004ZM4.92 4.14926e-05C6.1894 -0.00141249 7.41717 0.452789 8.38 1.28004C8.8287 1.65918 9.19046 2.13053 9.44067 2.66201C9.69088 3.1935 9.82367 3.77264 9.83 4.36004C9.82566 4.94779 9.69375 5.52758 9.4434 6.05936C9.19306 6.59113 8.83023 7.06221 8.38 7.44004C7.41615 8.26321 6.18747 8.71064 4.92 8.70004C4.62853 8.70161 4.33747 8.67819 4.05 8.63004C3.81762 8.59168 3.58733 8.54162 3.36 8.48004L1.94 9.30004C1.86285 9.34411 1.77151 9.35623 1.68554 9.3338C1.59957 9.31137 1.52579 9.25618 1.48 9.18004C1.44662 9.09659 1.44662 9.00349 1.48 8.92004L1.81 7.69004C1.28599 7.3279 0.846033 6.85725 0.52 6.31004C0.182846 5.71517 0.00381489 5.0438 0 4.36004C0.00821616 3.77198 0.14285 3.19257 0.394765 2.66113C0.646679 2.1297 1.00998 1.65868 1.46 1.28004C2.42098 0.44965 3.64996 -0.00500066 4.92 4.14926e-05Z" fill="#595959"/>
<path fill-rule="evenodd" clip-rule="evenodd" d="M2.61999 3.85004C2.69521 3.84868 2.76994 3.8625 2.83971 3.89066C2.90948 3.91883 2.97286 3.96076 3.02606 4.01397C3.07926 4.06717 3.1212 4.13054 3.14936 4.20031C3.17753 4.27008 3.19134 4.34481 3.18999 4.42004C3.19132 4.49573 3.17755 4.57092 3.1495 4.64124C3.12145 4.71155 3.07968 4.77557 3.02662 4.82957C2.97355 4.88356 2.91027 4.92644 2.84045 4.95571C2.77064 4.98498 2.69569 5.00005 2.61999 5.00004C2.46962 4.99747 2.32612 4.93659 2.21978 4.83024C2.11344 4.7239 2.05256 4.58041 2.04999 4.43004C2.04999 4.27886 2.11004 4.13388 2.21694 4.02699C2.32383 3.92009 2.46881 3.86004 2.61999 3.86004" fill="#595959"/>
<path fill-rule="evenodd" clip-rule="evenodd" d="M4.91 3.85004C5.06117 3.85004 5.20615 3.91009 5.31305 4.01699C5.41994 4.12388 5.48 4.26886 5.48 4.42004C5.48002 4.57215 5.42029 4.71817 5.31367 4.82666C5.20705 4.93515 5.06208 4.99741 4.91 5.00004C4.75882 5.00004 4.61384 4.93998 4.50694 4.83309C4.40005 4.72619 4.34 4.58121 4.34 4.43004C4.33864 4.35481 4.35246 4.28008 4.38062 4.21031C4.40879 4.14055 4.45072 4.07717 4.50392 4.02397C4.55713 3.97076 4.6205 3.92883 4.69027 3.90066C4.76004 3.8725 4.83477 3.85868 4.91 3.86004" fill="#595959"/>
<path fill-rule="evenodd" clip-rule="evenodd" d="M7.19 3.85004C7.26522 3.84868 7.33995 3.8625 7.40972 3.89066C7.47949 3.91883 7.54286 3.96076 7.59607 4.01397C7.64927 4.06717 7.6912 4.13054 7.71937 4.20031C7.74753 4.27008 7.76135 4.34481 7.76 4.42004C7.76132 4.49573 7.74756 4.57092 7.71951 4.64124C7.69146 4.71155 7.64969 4.77557 7.59662 4.82957C7.54356 4.88356 7.48028 4.92644 7.41046 4.95571C7.34064 4.98498 7.2657 5.00005 7.19 5.00004C7.03962 4.99747 6.89613 4.93659 6.78979 4.83024C6.68345 4.7239 6.62257 4.58041 6.62 4.43004C6.62 4.27886 6.68005 4.13388 6.78694 4.02699C6.89384 3.92009 7.03882 3.86004 7.19 3.86004" fill="#595959"/>
<path d="M6.36001 8.51004C6.79661 8.66488 7.25678 8.7427 7.72001 8.74004C7.9376 8.73907 8.15484 8.72236 8.37001 8.69004C8.58442 8.66081 8.79544 8.61057 9.00001 8.54004C9.0866 8.50501 9.18342 8.50501 9.27001 8.54004L9.90001 8.90004L9.78001 8.44004C9.75938 8.37049 9.76298 8.296 9.79023 8.22878C9.81749 8.16155 9.86677 8.10558 9.93001 8.07004C10.3623 7.79801 10.728 7.43234 11 7.00004C11.2355 6.58541 11.3595 6.11686 11.36 5.64004C11.3604 5.22604 11.2713 4.81686 11.0987 4.44057C10.926 4.06428 10.6741 3.72978 10.36 3.46004C10.1212 3.27329 9.85899 3.11864 9.58001 3.00004C9.44936 2.67199 9.2816 2.35996 9.08001 2.07004C9.68746 2.24999 10.2498 2.55674 10.73 2.97004C11.1191 3.29939 11.4337 3.70785 11.6526 4.16823C11.8716 4.6286 11.99 5.13033 12 5.64004C12.002 6.23772 11.8431 6.82492 11.54 7.34004C11.2701 7.80379 10.9096 8.20849 10.48 8.53004L10.76 9.53004C10.7934 9.61349 10.7934 9.70659 10.76 9.79004C10.7142 9.86618 10.6404 9.92137 10.5545 9.9438C10.4685 9.96622 10.3772 9.95411 10.3 9.91004L9.09001 9.21004C8.9007 9.26969 8.70667 9.31318 8.51001 9.34004C8.262 9.37988 8.01121 9.39994 7.76001 9.40004C6.85564 9.41852 5.96567 9.1717 5.20001 8.69004C5.59199 8.67152 5.98086 8.61117 6.36001 8.51004Z" fill="#595959"/>
</svg>
