<svg width="13" height="12" viewBox="0 0 13 12" fill="none" xmlns="http://www.w3.org/2000/svg">
<path d="M3.39 3.70999L4.87 8.77999H9.87L11.22 3.70999H3.39ZM0.34 0.91999C0.249826 0.91999 0.163346 0.884169 0.0995837 0.820407C0.0358213 0.756644 0 0.670164 0 0.57999C0 0.489817 0.0358213 0.403336 0.0995837 0.339574C0.163346 0.275812 0.249826 0.23999 0.34 0.23999H2.13C2.20896 0.241075 2.28509 0.269613 2.3453 0.320705C2.40552 0.371797 2.44607 0.442257 2.46 0.51999L3.19 2.99999H11.75C11.7935 3.01157 11.8342 3.03166 11.8699 3.0591C11.9056 3.08654 11.9354 3.12079 11.9577 3.15986C11.9801 3.19893 11.9944 3.24204 11.9999 3.28669C12.0055 3.33134 12.0021 3.37665 11.99 3.41999L10.45 9.18999C10.4361 9.26772 10.3955 9.33818 10.3353 9.38928C10.2751 9.44037 10.199 9.46891 10.12 9.46999H4.61C4.53643 9.47108 4.4645 9.44827 4.40499 9.405C4.34549 9.36172 4.30163 9.30031 4.28 9.22999L1.87 0.91999H0.34Z" fill="#595959"/>
<path fill-rule="evenodd" clip-rule="evenodd" d="M5.3 10.54C5.42065 10.54 5.53859 10.5758 5.6389 10.6428C5.73921 10.7098 5.8174 10.8051 5.86357 10.9166C5.90974 11.028 5.92182 11.1507 5.89828 11.269C5.87474 11.3873 5.81665 11.496 5.73134 11.5813C5.64603 11.6666 5.53734 11.7247 5.41901 11.7483C5.30068 11.7718 5.17803 11.7597 5.06657 11.7136C4.9551 11.6674 4.85983 11.5892 4.79281 11.4889C4.72578 11.3886 4.69 11.2706 4.69 11.15C4.69 10.9882 4.75427 10.8331 4.86867 10.7187C4.98306 10.6043 5.13822 10.54 5.3 10.54Z" fill="#595959"/>
<path fill-rule="evenodd" clip-rule="evenodd" d="M9.44001 10.54C9.56021 10.542 9.67715 10.5794 9.77614 10.6476C9.87513 10.7158 9.95175 10.8118 9.99639 10.9234C10.041 11.035 10.0517 11.1573 10.027 11.275C10.0024 11.3927 9.94352 11.5004 9.85782 11.5847C9.77213 11.669 9.66343 11.7262 9.54538 11.7489C9.42734 11.7716 9.3052 11.759 9.19432 11.7125C9.08344 11.6661 8.98875 11.5879 8.92216 11.4878C8.85556 11.3877 8.82002 11.2702 8.82001 11.15C8.82 11.069 8.8361 10.9889 8.86738 10.9142C8.89866 10.8395 8.94449 10.7719 9.00219 10.7151C9.0599 10.6583 9.12833 10.6136 9.2035 10.5835C9.27867 10.5535 9.35906 10.5387 9.44001 10.54Z" fill="#595959"/>
</svg>
