<svg xmlns="http://www.w3.org/2000/svg" viewBox="0 0 12 12"><title>ic_2</title><g id="Page_7" data-name="Page 7"><g id="Page_7-2" data-name="Page 7"><path d="M6.06,7.16A1.82,1.82,0,0,0,5.9,6.3.56.56,0,0,0,5.39,6a.54.54,0,0,0-.49.25,1.63,1.63,0,0,0-.16.8V8.24a1.92,1.92,0,0,0,.15.86.54.54,0,0,0,.51.28.53.53,0,0,0,.5-.27,1.9,1.9,0,0,0,.16-.83ZM7,8.11a2.42,2.42,0,0,1-.41,1.51,1.41,1.41,0,0,1-1.19.52,1.45,1.45,0,0,1-1.19-.51,2.38,2.38,0,0,1-.42-1.47V7.29a2.36,2.36,0,0,1,.42-1.51,1.43,1.43,0,0,1,1.18-.51,1.45,1.45,0,0,1,1.19.51A2.37,2.37,0,0,1,7,7.24ZM8.89,9.72l-.46-.25,2.32-3.7.46.25Zm1.67-.55a.43.43,0,0,0,.12.31.37.37,0,0,0,.29.13c.27,0,.4-.15.4-.44V8.92a.48.48,0,0,0-.11-.32A.37.37,0,0,0,11,8.48a.41.41,0,0,0-.3.12.49.49,0,0,0-.11.33Zm-.62-.26a.93.93,0,0,1,.28-.71A1.06,1.06,0,0,1,11,7.93a1,1,0,0,1,.74.27,1,1,0,0,1,.29.73v.24a.91.91,0,0,1-.28.7,1.18,1.18,0,0,1-1.5,0,.94.94,0,0,1-.28-.72ZM8.3,6.51a.41.41,0,0,0,.11.31.37.37,0,0,0,.29.12A.36.36,0,0,0,9,6.82.43.43,0,0,0,9.1,6.5V6.25A.41.41,0,0,0,9,5.94a.35.35,0,0,0-.29-.13.37.37,0,0,0-.29.12.45.45,0,0,0-.11.34Zm-.63-.26A.94.94,0,0,1,8,5.54a1,1,0,0,1,.74-.27,1,1,0,0,1,.75.27,1,1,0,0,1,.28.73V6.5a.93.93,0,0,1-.28.71,1,1,0,0,1-.75.26A1.08,1.08,0,0,1,8,7.21a1,1,0,0,1-.29-.73Zm4.26-1.91h-.5l-1-1.61V4.34H9.94V1.89h.51l1,1.62V1.89h.5ZM9.06,3.06a1,1,0,0,0-.13-.58.46.46,0,0,0-.4-.21.45.45,0,0,0-.39.2A1,1,0,0,0,8,3.05v.12a1.09,1.09,0,0,0,.14.59.45.45,0,0,0,.39.2.46.46,0,0,0,.4-.2,1,1,0,0,0,.13-.58Zm.52.11a1.59,1.59,0,0,1-.13.64,1,1,0,0,1-.92.57A1,1,0,0,1,8,4.23a1,1,0,0,1-.37-.42,1.38,1.38,0,0,1-.13-.62V3.07a1.41,1.41,0,0,1,.13-.64A.9.9,0,0,1,8,2a1,1,0,0,1,.54-.15A1,1,0,0,1,9.08,2a.88.88,0,0,1,.36.42,1.39,1.39,0,0,1,.14.63Zm-3.39.19-.26.28v.7h-.5V1.89h.5V3l.22-.3.63-.81H7.4L6.53,3l.9,1.36H6.82ZM4.58,3.7a.25.25,0,0,0-.1-.22,1.6,1.6,0,0,0-.36-.16,2.25,2.25,0,0,1-.42-.17.68.68,0,0,1-.42-.61.61.61,0,0,1,.11-.35A.68.68,0,0,1,3.72,2a1.16,1.16,0,0,1,.47-.09A1.11,1.11,0,0,1,4.65,2,.78.78,0,0,1,5,2.22a.7.7,0,0,1,.12.4H4.58a.35.35,0,0,0-.1-.27.45.45,0,0,0-.3-.09.48.48,0,0,0-.29.08.24.24,0,0,0-.1.21.24.24,0,0,0,.12.2,1.73,1.73,0,0,0,.35.15,1.42,1.42,0,0,1,.63.32.66.66,0,0,1,.2.48.59.59,0,0,1-.24.5,1.07,1.07,0,0,1-.65.18,1.27,1.27,0,0,1-.52-.11A.82.82,0,0,1,3.33,4a.74.74,0,0,1-.12-.42h.5c0,.27.17.41.49.41a.47.47,0,0,0,.28-.08A.21.21,0,0,0,4.58,3.7Zm-1.74.64h-.5V1.89h.5ZM.57,2.3V3.94H.81a.57.57,0,0,0,.46-.2,1,1,0,0,0,.16-.55V3.06a.92.92,0,0,0-.16-.57A.56.56,0,0,0,.82,2.3Zm-.51,2V1.89H.82A1.14,1.14,0,0,1,1.4,2a.91.91,0,0,1,.39.41,1.23,1.23,0,0,1,.15.61v.11a1.31,1.31,0,0,1-.14.61,1,1,0,0,1-.4.41,1.11,1.11,0,0,1-.58.15Zm.06,3.4L.39,5.33H3.05v.79H1.17l-.12,1A1.47,1.47,0,0,1,1.76,7a1.36,1.36,0,0,1,1.06.42,1.66,1.66,0,0,1,.39,1.18,1.72,1.72,0,0,1-.2.82,1.29,1.29,0,0,1-.55.56,1.67,1.67,0,0,1-.85.2A1.91,1.91,0,0,1,.81,10a1.4,1.4,0,0,1-.58-.49A1.28,1.28,0,0,1,0,8.76H.93a.71.71,0,0,0,.21.46.65.65,0,0,0,.46.16.54.54,0,0,0,.49-.23,1,1,0,0,0,.18-.65.91.91,0,0,0-.2-.62.74.74,0,0,0-.57-.21A.85.85,0,0,0,1,7.84l-.09.09Z" fill="#ce021b"/></g></g></svg>