<svg width="12" height="12" viewBox="0 0 12 12" fill="none" xmlns="http://www.w3.org/2000/svg">
<path d="M11.27 0.74H3.27V8.35H11.27V0.74ZM2.9 0H11.63C11.7281 0 11.8222 0.038982 11.8916 0.10837C11.961 0.177759 12 0.27187 12 0.37V8.72C12 8.76813 11.9904 8.81577 11.9717 8.86012C11.953 8.90446 11.9255 8.9446 11.891 8.97816C11.8566 9.01172 11.8157 9.03803 11.7708 9.05552C11.726 9.07301 11.6781 9.08134 11.63 9.08H2.9C2.80358 9.08004 2.71095 9.04243 2.64184 8.97519C2.57273 8.90795 2.5326 8.81639 2.53 8.72V0.37C2.53253 0.272667 2.57232 0.180019 2.64117 0.111171C2.71002 0.0423234 2.80267 0.00252939 2.9 0Z" fill="#595959"/>
<path d="M2.53 3.40999H0.73V11.02H8.73V9.07999H2.9C2.80358 9.08003 2.71095 9.04242 2.64184 8.97518C2.57274 8.90794 2.53261 8.81638 2.53 8.71999V3.40999ZM0.37 2.67999H2.9C2.99548 2.67999 3.08705 2.71792 3.15456 2.78544C3.22207 2.85295 3.26 2.94452 3.26 3.03999V8.34999H9.1C9.19813 8.34999 9.29224 8.38898 9.36163 8.45836C9.43102 8.52775 9.47 8.62186 9.47 8.71999V11.39C9.46747 11.4873 9.42768 11.58 9.35883 11.6488C9.28998 11.7177 9.19733 11.7575 9.1 11.76H0.37C0.27187 11.76 0.177759 11.721 0.108371 11.6516C0.0389821 11.5822 2.68051e-08 11.4881 2.68051e-08 11.39V3.03999C-1.85453e-05 2.99187 0.00961388 2.94422 0.0283277 2.89988C0.0470415 2.85554 0.0744567 2.8154 0.108952 2.78183C0.143448 2.74827 0.184323 2.72197 0.229161 2.70447C0.273999 2.68698 0.321889 2.67866 0.37 2.67999Z" fill="#595959"/>
</svg>
