<svg width="12" height="12" viewBox="0 0 12 12" fill="none" xmlns="http://www.w3.org/2000/svg">
<path d="M1.25999 3.37L1.18999 11.24H4.18999V9C4.18999 8.9501 4.19982 8.90068 4.21892 8.85458C4.23802 8.80848 4.26601 8.76659 4.30129 8.7313C4.33658 8.69601 4.37847 8.66802 4.42457 8.64893C4.47068 8.62983 4.52009 8.62 4.56999 8.62H7.46999C7.5199 8.62 7.56931 8.62983 7.61541 8.64893C7.66152 8.66802 7.70341 8.69601 7.73869 8.7313C7.77398 8.76659 7.80197 8.80848 7.82107 8.85458C7.84016 8.90068 7.84999 8.9501 7.84999 9V11.26H10.85L10.78 3.39L5.99999 0.810001L1.25999 3.37ZM0.429993 11.58L0.509993 3.13C0.510828 3.06215 0.529818 2.99576 0.564989 2.93773C0.600159 2.87969 0.650228 2.83214 0.709993 2.8L5.81999 0.0500009C5.87472 0.0184043 5.9368 0.00177002 5.99999 0.00177002C6.06319 0.00177002 6.12527 0.0184043 6.17999 0.0500009L11.3 2.8C11.3621 2.83703 11.4133 2.88984 11.4485 2.95307C11.4836 3.01629 11.5014 3.08769 11.5 3.16L11.57 11.62C11.57 11.7208 11.53 11.8174 11.4587 11.8887C11.3874 11.96 11.2908 12 11.19 12H7.46999C7.36921 12 7.27256 11.96 7.20129 11.8887C7.13003 11.8174 7.08999 11.7208 7.08999 11.62V9.36H4.90999V11.62C4.90999 11.6699 4.90016 11.7193 4.88107 11.7654C4.86197 11.8115 4.83398 11.8534 4.79869 11.8887C4.76341 11.924 4.72152 11.952 4.67541 11.9711C4.62931 11.9902 4.5799 12 4.52999 12H0.809993C0.76009 12 0.710677 11.9902 0.664573 11.9711C0.618469 11.952 0.576578 11.924 0.541292 11.8887C0.506006 11.8534 0.478015 11.8115 0.458918 11.7654C0.439822 11.7193 0.429993 11.6699 0.429993 11.62V11.58Z" fill="#595959"/>
</svg>
