<svg width="12" height="12" viewBox="0 0 12 12" fill="none" xmlns="http://www.w3.org/2000/svg">
<path d="M0.429993 11.5804L0.509993 3.13043C0.510828 3.06258 0.529818 2.99618 0.564989 2.93815C0.600159 2.88012 0.650228 2.83257 0.709993 2.80043L5.81999 0.0504281C5.87472 0.0188315 5.9368 0.00219727 5.99999 0.00219727C6.06319 0.00219727 6.12527 0.0188315 6.17999 0.0504281L11.3 2.80043C11.3621 2.83746 11.4133 2.89027 11.4485 2.9535C11.4836 3.01672 11.5014 3.08811 11.5 3.16043L11.57 11.6204C11.57 11.7212 11.53 11.8179 11.4587 11.8891C11.3874 11.9604 11.2908 12.0004 11.19 12.0004H7.46999C7.36921 12.0004 7.27256 11.9604 7.20129 11.8891C7.13003 11.8179 7.08999 11.7212 7.08999 11.6204V9.36043H4.90999V11.6204C4.90999 11.6703 4.90016 11.7197 4.88107 11.7658C4.86197 11.812 4.83398 11.8538 4.79869 11.8891C4.76341 11.9244 4.72152 11.9524 4.67541 11.9715C4.62931 11.9906 4.5799 12.0004 4.52999 12.0004H0.809993C0.76009 12.0004 0.710677 11.9906 0.664573 11.9715C0.618469 11.9524 0.576578 11.9244 0.541292 11.8891C0.506006 11.8538 0.478015 11.812 0.458918 11.7658C0.439822 11.7197 0.429993 11.6703 0.429993 11.6204V11.5804Z" fill="#EE4E2E"/>
</svg>
