<svg xmlns="http://www.w3.org/2000/svg" viewBox="0 0 12 12"><title>ic_2</title><g id="Page_15" data-name="Page 15"><g id="Page_15-2" data-name="Page 15"><path d="M9.63,2.37a5.14,5.14,0,0,0-7.26,0h0A5.13,5.13,0,0,0,9.63,9.63h0a5.14,5.14,0,0,0,0-7.26ZM6,0a6,6,0,0,1,4.24,1.76h0a6,6,0,0,1,0,8.48h0a6,6,0,0,1-8.48,0,6,6,0,0,1,0-8.48h0A5.94,5.94,0,0,1,6,0Z" fill="#fb0"/><path d="M8.12,7.45a2.14,2.14,0,0,1-.18.86,2,2,0,0,1-.5.64,2.31,2.31,0,0,1-.74.4,3.18,3.18,0,0,1-.91.13,3.28,3.28,0,0,1-.63-.06,4,4,0,0,1-.52-.14,2.76,2.76,0,0,1-.39-.18A1.19,1.19,0,0,1,4,8.94a.5.5,0,0,1-.1-.19.9.9,0,0,1,0-.28,1.5,1.5,0,0,1,0-.2.39.39,0,0,1,0-.14A.22.22,0,0,1,4,8a.23.23,0,0,1,.11,0,.43.43,0,0,1,.25.1,2.68,2.68,0,0,0,.33.18,2.53,2.53,0,0,0,.48.19,2.25,2.25,0,0,0,.64.08,1.66,1.66,0,0,0,.49-.07,1.07,1.07,0,0,0,.38-.2A1,1,0,0,0,6.94,8,1.06,1.06,0,0,0,7,7.54a.81.81,0,0,0-.11-.43,1.05,1.05,0,0,0-.31-.32,2.2,2.2,0,0,0-.47-.27l-.54-.26A3.6,3.6,0,0,1,5,6a2.28,2.28,0,0,1-.5-.38,1.88,1.88,0,0,1-.35-.53,1.81,1.81,0,0,1-.14-.72,1.91,1.91,0,0,1,.16-.78A1.62,1.62,0,0,1,4.65,3a2,2,0,0,1,.67-.35,2.81,2.81,0,0,1,.82-.12,3.42,3.42,0,0,1,.45,0A3,3,0,0,1,7,2.67a2.28,2.28,0,0,1,.36.15A.79.79,0,0,1,7.61,3a.86.86,0,0,1,.07.1.25.25,0,0,1,0,.09.49.49,0,0,1,0,.12.86.86,0,0,1,0,.16,1.09,1.09,0,0,1,0,.18.59.59,0,0,1,0,.13.41.41,0,0,1-.07.11.21.21,0,0,1-.12,0,.43.43,0,0,1-.22-.09L7,3.65a3.25,3.25,0,0,0-.4-.15,1.75,1.75,0,0,0-.51-.07,1.1,1.1,0,0,0-.44.07.85.85,0,0,0-.31.17.76.76,0,0,0-.18.26.88.88,0,0,0-.06.33.78.78,0,0,0,.11.42A1.44,1.44,0,0,0,5.54,5,4.39,4.39,0,0,0,6,5.28l.55.26a4.25,4.25,0,0,1,.56.29,2.28,2.28,0,0,1,.5.38,1.66,1.66,0,0,1,.5,1.24" fill="#fb0" fill-rule="evenodd"/></g></g></svg>