<svg width="12" height="10" viewBox="0 0 12 10" fill="none" xmlns="http://www.w3.org/2000/svg">
<path d="M11.3 3.00041L9.17 4.23041C9.10754 4.24529 9.04246 4.24529 8.98 4.23041C8.88717 4.23041 8.79815 4.19353 8.73251 4.12789C8.66687 4.06226 8.63 3.97323 8.63 3.88041V0.880408H0.7V9.02041H8.63V6.02041C8.61561 5.96466 8.61561 5.90616 8.63 5.85041C8.67438 5.77015 8.74849 5.71051 8.83638 5.68433C8.92428 5.65815 9.01894 5.66751 9.1 5.71041L11.3 7.00041V3.00041ZM9.3 3.30041L11.45 2.10041C11.4888 2.07597 11.5324 2.05991 11.5778 2.05324C11.6232 2.04657 11.6695 2.04944 11.7137 2.06168C11.7579 2.07391 11.7991 2.09523 11.8346 2.12429C11.8702 2.15334 11.8992 2.18948 11.92 2.23041C11.9534 2.28075 11.9708 2.34 11.97 2.40041V7.57041C11.97 7.66323 11.9331 7.75226 11.8675 7.8179C11.8018 7.88353 11.7128 7.92041 11.62 7.92041C11.552 7.92046 11.4856 7.89951 11.43 7.86041L9.33 6.67041V9.42041C9.33 9.51323 9.29313 9.60226 9.22749 9.66789C9.16185 9.73353 9.07283 9.77041 8.98 9.77041H0.35C0.257174 9.77041 0.16815 9.73353 0.102513 9.66789C0.0368749 9.60226 0 9.51323 0 9.42041L0 0.580408C0 0.487582 0.0368749 0.398558 0.102513 0.33292C0.16815 0.267283 0.257174 0.230408 0.35 0.230408H9C9.09283 0.230408 9.18185 0.267283 9.24749 0.33292C9.31312 0.398558 9.35 0.487582 9.35 0.580408L9.3 3.30041Z" fill="#595959"/>
<path d="M4.65999 5.59041L5.65999 5.00041L4.65999 4.42041L3.65999 3.83041V6.18041L4.65999 5.59041ZM6.54999 5.30041L4.99999 6.20041L3.44999 7.09041C3.37672 7.13213 3.29086 7.14599 3.20818 7.12946C3.12551 7.11292 3.05158 7.0671 2.99999 7.00041C2.98666 6.94115 2.98666 6.87967 2.99999 6.82041V3.21041C2.99999 3.11759 3.03687 3.02856 3.1025 2.96293C3.16814 2.89729 3.25716 2.86041 3.34999 2.86041C3.42112 2.86022 3.49072 2.88109 3.54999 2.92041L4.99999 3.80041L6.51999 4.69041C6.55986 4.71226 6.59495 4.74189 6.62317 4.77753C6.65139 4.81318 6.67218 4.85412 6.6843 4.89795C6.69642 4.94177 6.69963 4.98757 6.69374 5.03266C6.68784 5.07774 6.67297 5.12118 6.64999 5.16041C6.63281 5.21674 6.5977 5.2659 6.54999 5.30041Z" fill="#595959"/>
</svg>
