<svg width="13" height="10" viewBox="0 0 13 10" fill="none" xmlns="http://www.w3.org/2000/svg">
<path d="M6.38 4.77L4.83 5.67L3.28 6.56V2.98L4.83 3.87L6.38 4.77ZM9.38 3.1L11.53 1.9C11.5688 1.87556 11.6124 1.8595 11.6578 1.85283C11.7032 1.84616 11.7495 1.84903 11.7937 1.86127C11.8379 1.8735 11.8791 1.89483 11.9146 1.92388C11.9502 1.95293 11.9792 1.98908 12 2.03C12.0334 2.08034 12.0508 2.13959 12.05 2.2V2.2V7.34C12.05 7.43283 12.0131 7.52185 11.9475 7.58749C11.8819 7.65313 11.7928 7.69 11.7 7.69C11.632 7.69005 11.5656 7.6691 11.51 7.63L9.33 6.44V9.19C9.33 9.28283 9.29313 9.37185 9.22749 9.43749C9.16185 9.50312 9.07283 9.54 8.98 9.54H0.35C0.257174 9.54 0.16815 9.50312 0.102513 9.43749C0.0368749 9.37185 0 9.28283 0 9.19L0 0.35C0 0.257174 0.0368749 0.16815 0.102513 0.102513C0.16815 0.0368749 0.257174 0 0.35 0H9C9.09283 0 9.18185 0.0368749 9.24749 0.102513C9.31312 0.16815 9.35 0.257174 9.35 0.35L9.38 3.1Z" fill="#EE4E2E"/>
<path fill-rule="evenodd" clip-rule="evenodd" d="M6.38 4.77L4.83 5.66L3.28 6.56V4.77V2.98L4.83 3.88L6.38 4.77Z" fill="white"/>
<path d="M3.47999 2.69001C3.52668 2.72251 3.56474 2.76591 3.59088 2.81644C3.61701 2.86698 3.63044 2.92312 3.62999 2.98001L3.47999 2.69001ZM4.62999 5.36001L5.62999 4.77001L4.62999 4.19001L3.62999 3.60001V5.95001L4.62999 5.36001ZM6.54999 5.07001L4.99999 5.97001L3.44999 6.86001C3.37672 6.90172 3.29086 6.91559 3.20818 6.89905C3.12551 6.88252 3.05158 6.83669 2.99999 6.77001C2.98666 6.71075 2.98666 6.64927 2.99999 6.59001V6.59001V2.98001C2.99999 2.88718 3.03687 2.79816 3.1025 2.73252C3.16814 2.66688 3.25716 2.63001 3.34999 2.63001C3.42112 2.62981 3.49072 2.65069 3.54999 2.69001L4.99999 3.57001L6.51999 4.46001C6.55986 4.48186 6.59495 4.51148 6.62317 4.54713C6.65139 4.58277 6.67218 4.62372 6.6843 4.66754C6.69642 4.71136 6.69963 4.75717 6.69374 4.80225C6.68784 4.84733 6.67297 4.89077 6.64999 4.93001C6.63281 4.98633 6.5977 5.03549 6.54999 5.07001V5.07001Z" fill="white"/>
<path d="M9.73999 2.46001H9.32999V7.01001H9.73999V2.46001Z" fill="white"/>
</svg>
