<svg xmlns="http://www.w3.org/2000/svg" viewBox="0 0 12 12"><title>ic_2</title><g id="Page_10" data-name="Page 10"><g id="Page_10-2" data-name="Page 10"><path d="M1.12.39h9.76a.57.57,0,0,1,.56.56L12,11.05a.54.54,0,0,1-.56.55H.56A.54.54,0,0,1,0,11.05L.56,1A.57.57,0,0,1,1.12.39" fill="#ce021b" fill-rule="evenodd"/><path d="M2.3,1.78a.29.29,0,0,1,.57,0A3.15,3.15,0,0,0,4.54,4.46a3.38,3.38,0,0,0,1.38.37,3,3,0,0,0,1.39-.27A3.4,3.4,0,0,0,9.13,1.69a.28.28,0,0,1,.32-.25.29.29,0,0,1,.25.32A3.94,3.94,0,0,1,7.55,5.08,3.5,3.5,0,0,1,5.9,5.4,3.92,3.92,0,0,1,4.27,5a3.71,3.71,0,0,1-2-3.19" fill="#fff"/></g></g></svg>