<svg width="12" height="13" viewBox="0 0 12 13" fill="none" xmlns="http://www.w3.org/2000/svg">
<path d="M4.68999 1.82043H1.81999V9.00043C1.81585 9.0801 1.78799 9.15672 1.73999 9.22043L1.21999 9.88043H10.78L10.28 9.25043C10.218 9.18161 10.1826 9.09299 10.18 9.00043V1.82043H7.39999C7.30929 1.82987 7.21831 1.8055 7.14449 1.75198C7.07067 1.69846 7.01921 1.61956 6.99999 1.53043C6.95479 1.32563 6.84634 1.14022 6.68999 1.00043V1.00043C6.51577 0.83685 6.28873 0.741068 6.04999 0.730432C5.81983 0.731108 5.5958 0.804619 5.40999 0.940432V0.940432C5.23872 1.08685 5.11654 1.28232 5.05999 1.50043C5.04785 1.587 5.00462 1.6662 4.93838 1.72325C4.87214 1.78029 4.7874 1.81128 4.69999 1.81043L4.68999 1.82043ZM1.45999 1.09043H4.45999C4.57592 0.814034 4.76207 0.57273 4.99999 0.390432V0.390432C5.309 0.14209 5.69355 0.00671387 6.08999 0.00671387C6.48642 0.00671387 6.87097 0.14209 7.17999 0.390432C7.41057 0.575224 7.58966 0.816305 7.69999 1.09043H10.58C10.6773 1.09296 10.77 1.13276 10.8388 1.2016C10.9077 1.27045 10.9475 1.3631 10.95 1.46043V8.82043L11.85 9.97043C11.8797 10.0069 11.9017 10.0489 11.9148 10.0941C11.9279 10.1392 11.9317 10.1865 11.9261 10.2332C11.9205 10.2798 11.9056 10.3249 11.8822 10.3657C11.8588 10.4064 11.8274 10.442 11.79 10.4704C11.7289 10.5231 11.6506 10.5515 11.57 10.5504H0.479985C0.431875 10.5518 0.383984 10.5434 0.339146 10.526C0.294308 10.5085 0.253433 10.4822 0.218938 10.4486C0.184442 10.415 0.157027 10.3749 0.138313 10.3305C0.119599 10.2862 0.109967 10.2386 0.109985 10.1904C0.110738 10.0975 0.146437 10.0082 0.209985 9.94043L1.09999 8.82043V1.46043C1.09995 1.36401 1.13756 1.27138 1.2048 1.20228C1.27204 1.13317 1.3636 1.09304 1.45999 1.09043Z" fill="#595959"/>
<path d="M6.84 11.1704C6.96698 11.0596 7.0692 10.9233 7.14 10.7704H4.86C4.9308 10.9233 5.03302 11.0596 5.16 11.1704C5.39101 11.377 5.69007 11.4913 6 11.4913C6.30993 11.4913 6.60899 11.377 6.84 11.1704ZM8 10.4004C7.94333 10.8901 7.70784 11.3415 7.33873 11.6682C6.96962 11.9948 6.49289 12.1737 6 12.1704C5.51148 12.1727 5.04009 11.9906 4.68 11.6604C4.30097 11.3425 4.05772 10.8918 4 10.4004V10.0004H8V10.4004Z" fill="#595959"/>
</svg>
