<svg width="12" height="12" viewBox="0 0 12 12" fill="none" xmlns="http://www.w3.org/2000/svg">
<path d="M1.35 1.08372H4.35C4.46593 0.80732 4.65208 0.566016 4.89 0.383718V0.383718C5.19901 0.135376 5.58356 0 5.98 0C6.37644 0 6.76099 0.135376 7.07 0.383718C7.30059 0.56851 7.47967 0.809591 7.59 1.08372H10.47C10.5673 1.08625 10.66 1.12604 10.7288 1.19489C10.7977 1.26374 10.8375 1.35639 10.84 1.45372V8.81372L11.74 9.96372C11.7697 10.0002 11.7917 10.0422 11.8048 10.0873C11.8179 10.1325 11.8217 10.1798 11.8161 10.2265C11.8105 10.2731 11.7956 10.3182 11.7722 10.3589C11.7488 10.3997 11.7175 10.4353 11.68 10.4637C11.6189 10.5164 11.5406 10.5448 11.46 10.5437H0.37C0.321889 10.5451 0.273999 10.5367 0.229161 10.5192C0.184323 10.5017 0.143448 10.4754 0.108952 10.4419C0.0744568 10.4083 0.0470415 10.3682 0.0283277 10.3238C0.00961387 10.2795 -1.85453e-05 10.2318 2.68051e-08 10.1837C0.000752361 10.0908 0.0364517 10.0015 0.1 9.93372L0.99 8.81372V1.45372C0.989965 1.3573 1.02757 1.26467 1.09481 1.19556C1.16205 1.12645 1.25361 1.08632 1.35 1.08372Z" fill="#EE4E2E"/>
<path d="M6.73001 10.9937C6.85699 10.8829 6.95921 10.7466 7.03001 10.5937H4.75001C4.82082 10.7466 4.92304 10.8829 5.05001 10.9937V10.9937C5.28102 11.2003 5.58008 11.3146 5.89001 11.3146C6.19995 11.3146 6.49901 11.2003 6.73001 10.9937ZM7.89001 10.2237C7.83334 10.7133 7.59786 11.1648 7.22875 11.4915C6.85964 11.8181 6.3829 11.997 5.89001 11.9937C5.4015 11.996 4.93011 11.8139 4.57001 11.4837V11.4837C4.19098 11.1658 3.94773 10.7151 3.89001 10.2237V9.82372H7.89001V10.2237Z" fill="#EE4E2E"/>
</svg>
