<svg xmlns="http://www.w3.org/2000/svg" viewBox="0 0 12 12"><title>ic_2</title><g id="Page_11" data-name="Page 11"><g id="Page_11-2" data-name="Page 11"><path d="M.93,8.76a3.87,3.87,0,0,1-.69-1.2,3.95,3.95,0,0,1,0-2.79A4,4,0,0,1,1,3.53l.44.39A3.63,3.63,0,0,0,.81,5,3.52,3.52,0,0,0,.59,6.2a3.41,3.41,0,0,0,.2,1.16,3.45,3.45,0,0,0,.59,1ZM9.53,7.5A2,2,0,0,0,10,6.2a2.14,2.14,0,0,0-.11-.67,2.29,2.29,0,0,0-.33-.59L10,4.57a2.74,2.74,0,0,1,.42.77,2.47,2.47,0,0,1,.15.86,2.7,2.7,0,0,1-.16.9,2.52,2.52,0,0,1-.45.78Zm1.09.88a3.45,3.45,0,0,0,.59-1,3.41,3.41,0,0,0,.2-1.16A3.52,3.52,0,0,0,11.19,5a3.63,3.63,0,0,0-.66-1.06L11,3.53a4,4,0,0,1,.76,1.24,3.95,3.95,0,0,1,0,2.79,4.08,4.08,0,0,1-.69,1.2ZM2,7.88a2.52,2.52,0,0,1-.45-.78,2.7,2.7,0,0,1-.16-.9,2.47,2.47,0,0,1,.15-.86A2.74,2.74,0,0,1,2,4.57l.46.37a2.29,2.29,0,0,0-.33.59A2.14,2.14,0,0,0,2,6.2a2,2,0,0,0,.47,1.3Z" fill="#24ab9a"/><rect x="3.04" y="1.42" width="5.73" height="9.16" fill="#24ab9a"/><rect x="3.94" y="2.5" width="3.93" height="5.34" fill="#fff"/><rect x="5.19" y="9.19" width="1.43" height="0.54" fill="#fff"/></g></g></svg>