<svg xmlns="http://www.w3.org/2000/svg" viewBox="0 0 12 12"><title>ic_2</title><g id="Page_12" data-name="Page 12"><g id="Page_12-2" data-name="Page 12"><path d="M7,7.86A1.44,1.44,0,0,0,6.76,7a.58.58,0,0,0-.54-.29.67.67,0,0,0-.66.36V8.68a.67.67,0,0,0,.66.38c.49,0,.73-.4.73-1.2m1,.08a2.29,2.29,0,0,1-.4,1.41,1.27,1.27,0,0,1-1.08.53,1.18,1.18,0,0,1-.93-.4v1.79h-1V6h.94l0,.37a1.2,1.2,0,0,1,1-.45,1.29,1.29,0,0,1,1.09.53A2.32,2.32,0,0,1,8,7.88ZM1.06,7.07h.85a.91.91,0,0,0,.62-.2.75.75,0,0,0,.22-.56.77.77,0,0,0-.21-.57.86.86,0,0,0-.63-.21H1.06Zm8.68,4.81V3.56H7.83V2a3.34,3.34,0,0,0,1.53-.61A3,3,0,0,0,10.42.12H12V11.88Zm-7.84-4H1.06V9.81H0V4.68H1.91a2.16,2.16,0,0,1,1.4.4A1.39,1.39,0,0,1,3.8,6.23a1.49,1.49,0,0,1-.23.87,1.53,1.53,0,0,1-.68.56L4,9.76v.05H2.86Z" fill="#ee4e2e"/></g></g></svg>