<svg xmlns="http://www.w3.org/2000/svg" viewBox="0 0 12 12"><title>ic_2</title><g id="Page_2" data-name="Page 2"><g id="Page_2-2" data-name="Page 2"><path d="M0,2.05H12v.88h0a.73.73,0,0,0-.73.73.73.73,0,0,0,.73.72h0v.89h0a.73.73,0,0,0,0,1.46h0v.89h0a.73.73,0,0,0-.73.72.73.73,0,0,0,.73.73h0V10H0V9.07H0a.73.73,0,0,0,.73-.73A.73.73,0,0,0,0,7.62H0V6.73H0A.73.73,0,0,0,0,5.27H0V4.38H0a.73.73,0,0,0,.73-.72A.73.73,0,0,0,0,2.93H0Z" fill="#e59912" fill-rule="evenodd"/><rect x="2.81" y="3.65" width="6.38" height="4.7" fill="#fff"/><path d="M6.84,5.94h.57a.57.57,0,0,0,.39-.12.46.46,0,0,0,.13-.34.49.49,0,0,0-.14-.36A.5.5,0,0,0,7.42,5H6.84Zm0,.52V7.55H6.2V4.45H7.41A1.44,1.44,0,0,1,8,4.58a1,1,0,0,1,.41.36,1.09,1.09,0,0,1,.14.54.9.9,0,0,1-.31.72,1.32,1.32,0,0,1-.86.26ZM4.07,5.9h.51A.53.53,0,0,0,5,5.78a.44.44,0,0,0,.13-.34A.45.45,0,0,0,5,5.1.49.49,0,0,0,4.58,5H4.07Zm.5.52h-.5V7.55H3.43V4.45H4.58a1.31,1.31,0,0,1,.84.25.83.83,0,0,1,.3.69,1,1,0,0,1-.14.53.91.91,0,0,1-.41.33l.67,1.27v0H5.15Z" fill="#e59912"/></g></g></svg>