<svg width="13" height="13" viewBox="0 0 13 13" fill="none" xmlns="http://www.w3.org/2000/svg">
<path d="M11.63 12.0004H0.36C0.264522 12.0004 0.172955 11.9625 0.105442 11.895C0.0379285 11.8275 0 11.7359 0 11.6404L0 10.2204C0.000578209 10.1551 0.0184648 10.091 0.0518393 10.0348C0.0852138 9.9786 0.132885 9.93223 0.19 9.90043L4.19 7.68043C3.65916 7.24614 3.21767 6.71295 2.89 6.11043C2.64021 5.47316 2.51134 4.79492 2.51 4.11043C2.48816 3.31571 2.65613 2.52724 3 1.81043C3.34614 1.09703 3.94482 0.537543 4.68 0.240432C5.10006 0.0748251 5.54853 -0.00671649 6 0.000432491C6.46817 0.0241767 6.93006 0.118577 7.37 0.280432C7.78247 0.444266 8.15538 0.693943 8.46399 1.0129C8.7726 1.33185 9.00985 1.71279 9.16 2.13043C9.41128 2.86613 9.50996 3.64532 9.45 4.42043C9.41315 4.99562 9.30223 5.56364 9.12 6.11043C8.79233 6.71295 8.35084 7.24614 7.82 7.68043L11.82 9.89043C11.8831 9.91935 11.9365 9.96588 11.9737 10.0244C12.011 10.083 12.0305 10.151 12.03 10.2204V11.6404C12.0314 11.6894 12.0228 11.7381 12.0046 11.7836C11.9865 11.8292 11.9593 11.8705 11.9247 11.9051C11.8901 11.9398 11.8487 11.967 11.8032 11.9851C11.7577 12.0032 11.709 12.0118 11.66 12.0104L11.63 12.0004ZM6 11.2804H11.27V10.4304L7 8.06043C6.95727 8.03751 6.91961 8.00619 6.88928 7.96836C6.85894 7.93052 6.83657 7.88695 6.8235 7.84025C6.81042 7.79356 6.80691 7.7447 6.81319 7.69662C6.81946 7.64853 6.83538 7.60221 6.86 7.56043C6.89672 7.51262 6.94486 7.4748 7 7.45043C7.57452 7.00645 8.06261 6.46073 8.44 5.84043C8.59879 5.3652 8.69297 4.87077 8.72 4.37043C8.78115 3.69431 8.69938 3.01289 8.48 2.37043C8.35884 2.05811 8.17337 1.77476 7.93563 1.53874C7.69789 1.30272 7.41319 1.11932 7.1 1.00043C6.74976 0.851529 6.3788 0.757102 6 0.720433C5.65788 0.722361 5.31899 0.786751 5 0.910433C4.41681 1.14096 3.93952 1.57907 3.66 2.14043C3.36752 2.74478 3.22027 3.4091 3.23 4.08043C3.22544 4.68289 3.3375 5.28055 3.56 5.84043C3.95642 6.46471 4.46098 7.0133 5.05 7.46043C5.09164 7.49051 5.12637 7.52915 5.15184 7.57377C5.17731 7.61838 5.19294 7.66792 5.19767 7.71907C5.20241 7.77023 5.19614 7.8218 5.1793 7.87033C5.16245 7.91886 5.13541 7.96322 5.1 8.00043C5.07448 8.03811 5.04015 8.06901 5 8.09043L0.73 10.4304V11.2804H6Z" fill="#595959"/>
</svg>
