<svg xmlns="http://www.w3.org/2000/svg" viewBox="0 0 12 12"><title>ic_2</title><g id="Page_6" data-name="Page 6"><g id="Page_6-2" data-name="Page 6"><path d="M10.81,3,10.6,4.44H11ZM10.51,5l-.14.82h-.6l.65-3.6h.79l.64,3.6h-.6L11.11,5ZM7.94,3.66h.24a.35.35,0,0,0,.36-.24.56.56,0,0,0,0-.23.44.44,0,0,0-.12-.34.38.38,0,0,0-.28-.11H7.94Zm0,1.6h.24A.42.42,0,0,0,8.59,5a.72.72,0,0,0,0-.22.61.61,0,0,0-.13-.44.38.38,0,0,0-.32-.13H7.94Zm-.62.53V2.19h.86a1.18,1.18,0,0,1,.62.17.8.8,0,0,1,.34.44,1.48,1.48,0,0,1,0,.39.85.85,0,0,1-.2.58.66.66,0,0,1-.2.14.68.68,0,0,1,.32.27,1,1,0,0,1,.13.36,1.81,1.81,0,0,1,0,.25,1.06,1.06,0,0,1-.14.58.86.86,0,0,1-.3.3.88.88,0,0,1-.43.12ZM6,3.06c0-.21-.11-.31-.33-.31H5.36V3.9h.35a.32.32,0,0,0,.23-.09A.34.34,0,0,0,6,3.59Zm-.35-.87a.9.9,0,0,1,.71.25.9.9,0,0,1,.2.61v.52a.81.81,0,0,1-.31.65l.43,1.57H6.1L5.74,4.44H5.36V5.79H4.78V2.19ZM2.64,5.79V2.19H4.28v.54H3.21v1H4v.55H3.21v1H4.28v.54Zm8.44,4.06a.91.91,0,0,1-.65-.25A.83.83,0,0,1,10.17,9V6.2h.56V9a.27.27,0,0,0,.1.22.32.32,0,0,0,.24.09.32.32,0,0,0,.23-.09A.3.3,0,0,0,11.4,9V6.2H12V9a.78.78,0,0,1-.27.61A.91.91,0,0,1,11.08,9.85ZM8.35,7.67h.24A.35.35,0,0,0,9,7.43.8.8,0,0,0,9,7.2a.45.45,0,0,0-.11-.34.39.39,0,0,0-.28-.11H8.35Zm0,1.6h.24A.42.42,0,0,0,9,9a.72.72,0,0,0,0-.22.66.66,0,0,0-.13-.44.38.38,0,0,0-.32-.13H8.35Zm-.63.54V6.2h.87a1.2,1.2,0,0,1,.62.17.83.83,0,0,1,.34.45,1.35,1.35,0,0,1,0,.38.85.85,0,0,1-.2.58.6.6,0,0,1-.21.14.71.71,0,0,1,.33.27,1,1,0,0,1,.13.36,1.81,1.81,0,0,1,0,.25,1.16,1.16,0,0,1-.14.58.86.86,0,0,1-.3.3.93.93,0,0,1-.44.13Zm-.51,0H6.63V6.2h.58ZM5.45,7.07c0-.21-.11-.31-.33-.31H4.77V7.91h.35a.34.34,0,0,0,.24-.09.31.31,0,0,0,.09-.22ZM5.11,6.2a.94.94,0,0,1,.71.25.9.9,0,0,1,.2.61v.53a.82.82,0,0,1-.31.64l.43,1.58H5.51L5.16,8.45H4.77V9.81H4.2V6.2ZM2.81,7a.27.27,0,0,0-.1-.22.32.32,0,0,0-.24-.09.32.32,0,0,0-.23.09.27.27,0,0,0-.1.22V9a.27.27,0,0,0,.1.22.29.29,0,0,0,.23.1.3.3,0,0,0,.24-.1A.27.27,0,0,0,2.81,9Zm.6,2a.8.8,0,0,1-.27.61.91.91,0,0,1-.65.25.91.91,0,0,1-.65-.25A.8.8,0,0,1,1.57,9V7a.8.8,0,0,1,.27-.61.91.91,0,0,1,.65-.25.9.9,0,0,1,.65.25A.8.8,0,0,1,3.41,7ZM.49,9.81V7H0V6.65a.8.8,0,0,0,.39-.14A.82.82,0,0,0,.67,6.2h.4V9.81ZM2.06,4.9a1,1,0,0,1-.21.64.76.76,0,0,1-.4.26,1,1,0,0,1-.32,0,.91.91,0,0,1-.56-.16.93.93,0,0,1-.3-.35,1.37,1.37,0,0,1-.12-.52l.55,0a.72.72,0,0,0,.17.45.29.29,0,0,0,.24.1.34.34,0,0,0,.3-.17.43.43,0,0,0,.06-.24.67.67,0,0,0-.21-.45L.74,4a2.17,2.17,0,0,1-.4-.47,1,1,0,0,1-.13-.5A.88.88,0,0,1,.56,2.3a.91.91,0,0,1,.54-.15,1,1,0,0,1,.53.13.81.81,0,0,1,.27.28A.94.94,0,0,1,2,3l-.56.09a.58.58,0,0,0-.13-.34.29.29,0,0,0-.23-.09.27.27,0,0,0-.24.13A.45.45,0,0,0,.8,3a.78.78,0,0,0,.23.5,2.28,2.28,0,0,0,.26.23L1.55,4a1.32,1.32,0,0,1,.33.4A.89.89,0,0,1,2,4.55.86.86,0,0,1,2.06,4.9Z" fill="#ce021b"/></g></g></svg>