<svg width="13" height="13" viewBox="0 0 13 13" fill="none" xmlns="http://www.w3.org/2000/svg">
<path d="M8.57 3.00001C8.13899 2.56794 7.62697 2.22514 7.06328 1.99124C6.49959 1.75735 5.89529 1.63695 5.285 1.63695C4.67471 1.63695 4.07041 1.75735 3.50672 1.99124C2.94303 2.22514 2.43101 2.56794 2 3.00001C1.56795 3.4314 1.2251 3.94367 0.991028 4.50756C0.756953 5.07145 0.636238 5.67593 0.635773 6.28647C0.635309 6.89702 0.755105 7.50167 0.988322 8.06592C1.22154 8.63017 1.56361 9.14296 1.995 9.57501C2.42639 10.0071 2.93866 10.3499 3.50255 10.584C4.06644 10.8181 4.67092 10.9388 5.28147 10.9392C5.89201 10.9397 6.49667 10.8199 7.06092 10.5867C7.62516 10.3535 8.13795 10.0114 8.57 9.58001C9.00357 9.14881 9.34764 8.63617 9.58243 8.07156C9.81721 7.50694 9.93808 6.90149 9.93808 6.29001C9.93808 5.67852 9.81721 5.07307 9.58243 4.50845C9.34764 3.94384 9.00357 3.4312 8.57 3.00001ZM9.29 9.75001L11.91 12.42C11.9692 12.4799 12.0025 12.5608 12.0025 12.645C12.0025 12.7293 11.9692 12.8101 11.91 12.87C11.881 12.9006 11.8461 12.9249 11.8075 12.9415C11.7688 12.9582 11.7271 12.9668 11.685 12.9668C11.6429 12.9668 11.6012 12.9582 11.5625 12.9415C11.5239 12.9249 11.489 12.9006 11.46 12.87L8.83 10.23C7.81806 11.1315 6.4987 11.6102 5.14411 11.5675C3.78952 11.5247 2.50302 10.9636 1.55 10C0.558297 9.00799 0.00119019 7.66271 0.00119019 6.26001C0.00119019 4.8573 0.558297 3.51203 1.55 2.52001C2.51141 1.49362 3.84117 0.891188 5.24676 0.845241C6.65234 0.799295 8.01861 1.3136 9.045 2.27501C10.0714 3.23642 10.6738 4.56618 10.7198 5.97177C10.7657 7.37735 10.2514 8.74362 9.29 9.77001V9.75001Z" fill="#595959"/>
</svg>
