<svg xmlns="http://www.w3.org/2000/svg" viewBox="0 0 12 12"><title>ic_2</title><g id="Page_14" data-name="Page 14"><g id="Page_14-2" data-name="Page 14"><path d="M9.57.5h0m.79,2.24h.11a1.51,1.51,0,0,1,1.06.44h0A1.51,1.51,0,0,1,12,4.25V10a1.53,1.53,0,0,1-.44,1.07h0a1.55,1.55,0,0,1-1.07.44h-9a1.51,1.51,0,0,1-1.06-.44h0A1.51,1.51,0,0,1,0,10V2.74a1.37,1.37,0,0,1,.49-1,2,2,0,0,1,1.13-.48L9.49.5h.1a.74.74,0,0,1,.57.27h0a1,1,0,0,1,.21.52V2.74Zm-8,.78A.39.39,0,0,1,2,3.13a.38.38,0,0,1,.39-.39H9.61V1.36a.94.94,0,0,0,0-.09h0L1.69,2A1.13,1.13,0,0,0,1,2.29a.6.6,0,0,0-.23.45V10a.74.74,0,0,0,.21.52.77.77,0,0,0,.52.22h9a.77.77,0,0,0,.52-.22h0a.74.74,0,0,0,.21-.52V4.25a.72.72,0,0,0-.73-.73Z" fill="#ee4e2e"/><path d="M7.57,8.2a1.56,1.56,0,0,1-.13.64,1.4,1.4,0,0,1-.37.47,1.48,1.48,0,0,1-.55.3,2.24,2.24,0,0,1-.68.1,2.5,2.5,0,0,1-.47-.05A2.36,2.36,0,0,1,5,9.56L4.7,9.43a1.25,1.25,0,0,1-.17-.12.36.36,0,0,1-.08-.15.65.65,0,0,1,0-.2.76.76,0,0,1,0-.15.36.36,0,0,1,0-.1.19.19,0,0,1,.07-.08.11.11,0,0,1,.08,0,.4.4,0,0,1,.19.07L5,8.82A2.2,2.2,0,0,0,5.4,9,1.49,1.49,0,0,0,5.87,9,1.15,1.15,0,0,0,6.24,9a.92.92,0,0,0,.28-.14.61.61,0,0,0,.18-.24.81.81,0,0,0,.06-.31A.57.57,0,0,0,6.68,8a.78.78,0,0,0-.24-.24,1.45,1.45,0,0,0-.34-.2l-.41-.19L5.28,7.1a1.93,1.93,0,0,1-.36-.28,1.56,1.56,0,0,1-.27-.4,1.39,1.39,0,0,1-.1-.53,1.29,1.29,0,0,1,.12-.58A1,1,0,0,1,5,4.89a1.29,1.29,0,0,1,.49-.26,1.81,1.81,0,0,1,.61-.09,2.14,2.14,0,0,1,.66.11A1.53,1.53,0,0,1,7,4.76a.54.54,0,0,1,.16.1l.06.07,0,.07s0,.06,0,.09v.25s0,.07,0,.1a.41.41,0,0,1,0,.09l-.09,0A.49.49,0,0,1,7,5.5l-.21-.12a1.57,1.57,0,0,0-.3-.12,1.18,1.18,0,0,0-.37,0,1,1,0,0,0-.34,0,.61.61,0,0,0-.22.13.62.62,0,0,0-.14.19.67.67,0,0,0,0,.24.57.57,0,0,0,.08.32.91.91,0,0,0,.24.24A2.5,2.5,0,0,0,6,6.59l.41.19A3.17,3.17,0,0,1,6.83,7a1.72,1.72,0,0,1,.37.28,1.44,1.44,0,0,1,.27.39,1.24,1.24,0,0,1,.1.54" fill="#ee4e2e" fill-rule="evenodd"/></g></g></svg>