<svg width="13" height="12" viewBox="0 0 13 12" fill="none" xmlns="http://www.w3.org/2000/svg">
<path d="M11.63 12H0.37C0.321889 12.0014 0.273999 11.9931 0.229161 11.9756C0.184323 11.9581 0.143448 11.9318 0.108952 11.8982C0.0744567 11.8646 0.0470415 11.8245 0.0283277 11.7802C0.00961388 11.7358 -1.85453e-05 11.6882 2.68051e-08 11.64V10.21C0.00155874 10.1437 0.0209495 10.0789 0.0561387 10.0226C0.0913278 9.96633 0.141019 9.92053 0.2 9.89005L4.2 7.68005C3.65994 7.24974 3.21117 6.71598 2.88 6.11005C2.6293 5.47303 2.5004 4.79462 2.5 4.11005C2.48054 3.31765 2.65203 2.53221 3 1.82005C3.34415 1.10287 3.94308 0.539594 4.68 0.240045C5.10139 0.0791719 5.54895 -0.00220254 6 4.53291e-05V4.53291e-05C6.46869 0.0270005 6.93059 0.124776 7.37 0.290045C7.78095 0.451735 8.15247 0.699633 8.45952 1.01703C8.76657 1.33443 9.00202 1.71396 9.15 2.13005C9.41059 2.86355 9.50952 3.64473 9.44 4.42005C9.41023 4.99526 9.30258 5.56377 9.12 6.11005C8.7855 6.7108 8.34113 7.24337 7.81 7.68005L11.81 9.88005C11.8723 9.90994 11.9251 9.9567 11.9622 10.015C11.9993 10.0734 12.0193 10.1409 12.02 10.21V11.64C12.02 11.7355 11.9821 11.8271 11.9146 11.8946C11.847 11.9621 11.7555 12 11.66 12" fill="#EE4E2E"/>
</svg>
