<svg xmlns="http://www.w3.org/2000/svg" viewBox="0 0 12 12"><title>ic_2</title><g id="Page_4" data-name="Page 4"><g id="Page_4-2" data-name="Page 4"><path d="M6,0A6,6,0,1,1,0,6,6,6,0,0,1,6,0" fill="#ee4e2e" fill-rule="evenodd"/><path d="M9.38,2.62A4.78,4.78,0,1,0,10.78,6a4.79,4.79,0,0,0-1.4-3.38M6,.88a5.12,5.12,0,1,1-3.62,1.5A5.1,5.1,0,0,1,6,.88Z" fill="#fff"/><path d="M7.8,6.12l-3.46,2a.12.12,0,0,1-.14,0,.13.13,0,0,1-.06-.11V4a.13.13,0,0,1,.06-.11.12.12,0,0,1,.14,0l3.46,2a.15.15,0,0,1,0,.24" fill="#fff" fill-rule="evenodd"/></g></g></svg>