<svg xmlns="http://www.w3.org/2000/svg" viewBox="0 0 12 12"><title>ic_2</title><g id="Page_9" data-name="Page 9"><g id="Page_9-2" data-name="Page 9"><path d="M9.62,7.65H8.51a.72.72,0,0,0-.22.53.77.77,0,0,0,.23.55h0a.76.76,0,0,0,1.09,0h0a.77.77,0,0,0,.23-.55.76.76,0,0,0-.22-.53m-4.55,0H4a.75.75,0,0,0-.21.53A.76.76,0,0,0,4,8.73H4A.79.79,0,0,0,4.51,9a.77.77,0,0,0,.55-.23h0a.76.76,0,0,0,.22-.55A.75.75,0,0,0,5.07,7.65ZM.49,8a.2.2,0,0,1-.2-.21.2.2,0,0,1,.2-.2H2.16a.2.2,0,0,1,.2.2.2.2,0,0,1-.2.21ZM.21,8.8A.21.21,0,0,1,0,8.59a.2.2,0,0,1,.21-.2h2a.2.2,0,0,1,.2.2.2.2,0,0,1-.2.21ZM2.72,2.35H8.61a.58.58,0,0,1,.57.58V3.3h2.23a.59.59,0,0,1,.59.59V7.05a.6.6,0,0,1-.59.6h-1a1.32,1.32,0,0,1,.11.53,1.49,1.49,0,0,1-.43,1h0a1.49,1.49,0,0,1-1,.43,1.47,1.47,0,0,1-1-.43H8a1.45,1.45,0,0,1-.43-1,1.51,1.51,0,0,1,.1-.53H5.87a1.32,1.32,0,0,1,.1.53,1.45,1.45,0,0,1-.43,1h0a1.45,1.45,0,0,1-2.06,0h0a1.45,1.45,0,0,1-.43-1,1.32,1.32,0,0,1,.1-.53H2.72a.58.58,0,0,1-.58-.58V2.93A.58.58,0,0,1,2.72,2.35Z" fill="#ce021b" fill-rule="evenodd"/><path d="M9.82,4.83l-.19.6h.22Zm-2-.36L7.7,5.1h.21a.3.3,0,0,0,.16,0,.14.14,0,0,0,.07-.11l0-.32c0-.13-.08-.15-.19-.15ZM9.49,5.84l-.16.48a.05.05,0,0,1,0,0H8.84s0,0,0,0a0,0,0,0,1,0,0l.78-2.23a.05.05,0,0,1,0,0h.59a0,0,0,0,1,0,0l.18,2.23a0,0,0,0,1,0,0H10s0,0,0,0l0-.47ZM8.37,5.36l.18.94s0,0,0,0h-.5a0,0,0,0,1-.05,0l-.14-.81H7.64l-.11.81s0,0,0,0H7s0,0,0,0l.3-2.22s0,0,0,0H8a.75.75,0,0,1,.54.16.48.48,0,0,1,.11.41l0,.33A.63.63,0,0,1,8.37,5.36Zm-2.32-.9H5.61a0,0,0,0,1,0,0l0-.34s0,0,0,0H7.06s0,0,0,0l0,.34s0,0,0,0H6.57L6.32,6.32s0,0,0,0H5.82s0,0,0,0ZM4.4,5.7,3.53,7.18l0,0H3a.05.05,0,0,1,0,0v0L4.18,5.19,3.78,4.1s0,0,0,0h.51s0,0,0,0l.2.6.37-.6s0,0,0,0h.48a0,0,0,0,1,0,0,.06.06,0,0,1,0,0L4.75,5.2l.4,1.1s0,0,0,0,0,0,0,0H4.65s0,0,0,0Z" fill="#fff" fill-rule="evenodd"/></g></g></svg>